<?xml version="1.0" encoding="UTF-8"?>
<svg id="Layer_1" data-name="Layer 1" xmlns="http://www.w3.org/2000/svg" viewBox="0 0 960 960">
  <defs>
    <style>
      .cls-1 {
        stroke-width: 0px;
      }
    </style>
  </defs>
  <path class="cls-1" d="M311.42,428.65c-19.1,0-31.77,7.96-38.59,22.82l-.49-20.53h-29.57v164.48h32.62v-61.95c7.19,12.07,19.12,18.72,36.02,18.72,32.25,0,52.95-24.52,52.95-61.95s-20.69-61.59-52.95-61.59ZM303.75,523.57c-17.66,0-29.46-13.76-29.46-33.33s11.7-32.59,29.46-32.59,27.75,12.55,27.75,32.59-10.1,33.33-27.75,33.33Z"/>
  <path class="cls-1" d="M436.07,428.65c-38.84,0-61.48,25.6-61.48,61.7s22.75,61.84,61.48,61.84,61.36-25.71,61.36-61.84-22.52-61.7-61.36-61.7ZM436.07,523.45c-17.78,0-29.2-12.8-29.2-33.1s11.56-32.85,29.2-32.85,28.97,12.57,28.97,32.85-11.19,33.1-28.97,33.1Z"/>
  <path class="cls-1" d="M540.21,383.61h-32.62v168.59h32.62v-168.59Z"/>
  <path class="cls-1" d="M583.49,383.61h-32.62v168.59h32.62v-168.59Z"/>
  <path class="cls-1" d="M655.3,428.65c-38.84,0-61.48,25.6-61.48,61.7s22.75,61.84,61.48,61.84,61.34-25.71,61.34-61.84-22.52-61.7-61.34-61.7ZM655.3,523.45c-17.78,0-29.22-12.8-29.22-33.1s11.56-32.85,29.22-32.85,28.97,12.57,28.97,32.85-11.19,33.1-28.97,33.1Z"/>
  <path class="cls-1" d="M743.54,516.94c-9.57,0-17.83,7.87-17.83,17.57s8.23,17.66,17.83,17.66,17.83-7.96,17.83-17.66-8.23-17.57-17.83-17.57Z"/>
  <path class="cls-1" d="M790.39,382.53c-10.7,0-19.98,8.58-19.98,19.2s8.99,19.31,19.98,19.31,20.21-8.69,20.21-19.31-9.5-19.2-20.21-19.2Z"/>
  <path class="cls-1" d="M806.82,433.24h-32.62v118.95h32.62v-118.95Z"/>
  <path class="cls-1" d="M879.96,428.65c-38.85,0-61.48,25.6-61.48,61.7s22.75,61.84,61.48,61.84,61.34-25.71,61.34-61.84-22.53-61.7-61.34-61.7ZM879.96,523.45c-17.76,0-29.23-12.8-29.23-33.1s11.56-32.85,29.23-32.85,28.97,12.57,28.97,32.85-11.19,33.1-28.97,33.1Z"/>
  <path class="cls-1" d="M200.92,392.94h-32.07l16.65,28.26,15.42-28.26Z"/>
  <path class="cls-1" d="M131.68,364.66l-113.46,187.46h60.76c8.12,0,16.09-2.04,23.12-5.87,7.61-4.15,13.36-10.18,17.85-17.5,5.25-8.56,10.36-17.2,15.51-25.8l13.23-22.02-17.06-28.35-7.56,12.06c-8.62,14.29-16.79,28.92-25.71,43.03-4.49,7.06-10.36,13.76-19.01,15.48-1.29.25-2.64.39-3.98.44-1.78.07-3.56.02-5.34.02l61.64-104.04,79.1,132.97h22.89v-19.54l-.53-.87-101.46-167.46Z"/>
</svg>
