<?xml version="1.0" encoding="UTF-8" standalone="no"?>
<!DOCTYPE svg PUBLIC "-//W3C//DTD SVG 1.1//EN" "http://www.w3.org/Graphics/SVG/1.1/DTD/svg11.dtd">
<svg width="100%" height="100%" viewBox="0 0 527 562" version="1.1" xmlns="http://www.w3.org/2000/svg" xmlns:xlink="http://www.w3.org/1999/xlink" xml:space="preserve" xmlns:serif="http://www.serif.com/" style="fill-rule:evenodd;clip-rule:evenodd;stroke-linejoin:round;stroke-miterlimit:2;">
    <g transform="matrix(1,0,0,1,-8577.99,-25978.9)">
        <g transform="matrix(8.33333,0,0,8.33333,0,20250)">
            <g transform="matrix(1,0,0,1,1029.36,687.471)">
                <path d="M48.928,49.187C44.869,49.101 41.005,47.428 38.165,44.526C35.325,41.625 33.734,37.727 33.734,33.667C33.734,29.607 35.325,25.709 38.165,22.807C41.005,19.906 44.869,18.233 48.928,18.147C52.558,18.147 56.066,19.46 58.804,21.844C59.188,22.168 59.657,22.375 60.155,22.442C60.653,22.508 61.159,22.43 61.614,22.218C62.07,22.005 62.455,21.667 62.724,21.243C62.993,20.818 63.134,20.326 63.132,19.823L63.132,5.261C63.132,3.866 62.578,2.527 61.591,1.541C60.605,0.554 59.267,-0 57.871,-0L5.261,-0C3.866,-0 2.528,0.554 1.541,1.541C0.554,2.527 0,3.866 0,5.261L0,62.08C0,63.475 0.554,64.814 1.541,65.8C2.528,66.787 3.866,67.341 5.261,67.341L57.871,67.341C59.267,67.341 60.605,66.787 61.591,65.8C62.578,64.814 63.132,63.475 63.132,62.08L63.132,47.518C63.134,47.015 62.993,46.523 62.724,46.098C62.455,45.674 62.07,45.336 61.614,45.123C61.159,44.911 60.653,44.833 60.155,44.899C59.657,44.966 59.188,45.173 58.804,45.497C56.065,47.878 52.557,49.189 48.928,49.187Z" style="fill:rgb(238,90,41);fill-rule:nonzero;"/>
            </g>
        </g>
    </g>
</svg>
