<svg xmlns="http://www.w3.org/2000/svg" xmlns:xlink="http://www.w3.org/1999/xlink" width="1282" height="576"><defs><path id="a" d="M0 0h1282.145v576.193H0z"/></defs><g fill="none" fill-rule="evenodd"><mask id="b" fill="#fff"><use xlink:href="#a"/></mask><path fill="#FFF" d="M1141.064 221.043c-106-4-140 99-140 99-2-43 1-71 1-71 6-4 96-39 101-160 2-66-53-104-117-83-24 110-47 260-27 417-4 12-40 100-79 100-53 0-62-109-60-180 12-26 37-88 16-113-10-13-30-15-60-9 0 7-2 54-2 54s-26-49-90-49c-92 0-152 89-152 182 0 15 1 28 2 41l1 1-1 1c-25 46-48 69-78 69-65 0-73-100-73-100 61-72 94-173 94-283 0-91-40-158-122-131-19 96-43 311-25 411-36 48-79 77-79 77s7-11 7-36c0-110-191-79-191-143 0-17 14-46 70-46 51 0 78 27 91 27 31 0 27-38 27-38-15-11-65-39-119-38-86 0-123 52-123 98 0 120 196 78 196 150 0 37-22 58-76 58-47 0-81-38-101-38-35 0-32 36-32 36 9 7 65 53 139 52 62-2 136-27 201-105v-2c13 47 42 107 110 107 64 0 101-72 101-72s32 72 105 72c51 0 91-25 125-85 16 57 48 85 97 85 60 0 94-72 100-86 11 22 50 83 130 86 135 5 172-116 174-179 2-61-33-172-141-176zm-117-163s32-7 31 30c-3 86-52 107-52 107 6-73 21-137 21-137zm-651 300c-4-160 22-297 22-297s32 1 32 85c0 124-54 212-54 212zm398-11c0 103-38 173-108 173-73 0-82-87-82-114 0-35 16-130 102-130 60 0 88 71 88 70v1zm456 54c-2 46-28 125-109 122-84-4-105-85-103-120 4-64 47-133 121-130 72 3 92 82 91 128z" mask="url(#b)"/></g></svg>
