<svg fill="none" height="78" viewBox="0 0 200 78" width="200" xmlns="http://www.w3.org/2000/svg">
<path clip-rule="evenodd" d="M94.2448 1.76799C97.1733 4.69644 96.382 10.2357 92.4774 14.1403C88.5728 18.0449 83.0335 18.8362 80.105 15.9078C77.1766 12.9793 77.9679 7.44006 81.8725 3.53547C85.7771 -0.369128 91.3164 -1.16045 94.2448 1.76799ZM54.3389 0.861821L68.5242 0.815881L68.7683 76.1791L54.583 76.2251L54.3389 0.861821ZM80.175 22.6162H94.3603V76.2016H80.175V22.6162ZM38.7127 47.5186C36.0256 45.9875 32.7449 44.769 28.808 43.8316C25.9647 43.0505 23.715 42.3319 22.0278 41.6757C20.3406 41.0196 19.1533 40.3009 18.4659 39.551C17.7472 38.8012 17.4035 37.9575 17.4035 37.0202C17.4035 35.6142 17.9972 34.4893 19.2158 33.677C20.4343 32.8646 22.1528 32.4584 24.4024 32.4584C26.4021 32.4584 28.7143 32.8958 31.3076 33.7394C33.901 34.6143 36.2443 35.8016 38.3378 37.3639L45.3679 27.7404C42.6184 25.7094 39.4313 24.1472 35.7757 23.0536C32.1512 21.96 28.4331 21.3976 24.6836 21.3976C20.4343 21.3976 16.6849 22.085 13.4667 23.4598C10.2484 24.8346 7.71755 26.7093 5.81159 29.0839C3.93689 31.4586 2.99953 34.2394 2.99953 37.3639C2.99953 40.5821 3.74942 43.2692 5.24918 45.4564C6.74895 47.6435 8.9361 49.4557 11.7794 50.8618C14.6227 52.2678 18.0597 53.4864 22.0591 54.4862C24.7461 55.2673 26.8396 55.9547 28.4018 56.5484C29.9328 57.142 31.0264 57.7669 31.6513 58.4231C32.2762 59.0792 32.5887 59.9229 32.5887 60.954C32.5887 62.6099 31.8388 63.891 30.339 64.8908C28.8393 65.8594 26.8396 66.3594 24.3087 66.3594C21.4654 66.3594 18.5596 65.7657 15.5913 64.6096C12.623 63.4223 9.81097 61.7976 7.12389 59.6729L0 69.5151C3.74941 72.171 7.65506 74.1394 11.6544 75.4517C15.6538 76.7327 19.8719 77.3889 24.3087 77.3889C31.4951 77.3889 37.0567 75.8579 41.0248 72.7646C44.993 69.6713 46.9614 65.6407 46.9614 60.6415C46.9614 57.7357 46.2428 55.2361 44.8368 53.0802C43.4307 50.893 41.3998 49.0496 38.7127 47.5186ZM186.721 25.1158C190.783 27.5842 194.032 30.9274 196.407 35.1455C198.781 39.3636 199.969 44.1128 200 49.2995C200 50.1142 199.942 50.958 199.881 51.831L199.881 51.8316L199.875 51.9241C199.813 52.8302 199.688 53.6114 199.531 54.33H159.225C159.569 55.5798 160.038 56.7671 160.662 57.8607C162.006 60.2978 163.849 62.2038 166.162 63.6098C168.442 65.0158 171.098 65.7345 174.067 65.7345C176.785 65.7345 179.316 65.297 181.628 64.3909C183.909 63.4848 186.096 62.0788 188.127 60.1103L196.094 68.7965C193.22 71.6398 189.939 73.7645 186.252 75.2017C182.565 76.639 178.628 77.3577 174.41 77.3577C168.942 77.3577 164.006 76.1391 159.631 73.6707C155.257 71.2024 151.82 67.8591 149.32 63.641C146.821 59.4229 145.571 54.7049 145.571 49.4557C145.571 44.2066 146.758 39.4573 149.195 35.208C151.601 30.9274 154.882 27.5842 159.038 25.1158C163.193 22.6474 167.786 21.4289 172.879 21.4289C178.035 21.4289 182.659 22.6474 186.721 25.1158ZM160.412 40.9571C159.913 41.9569 159.506 43.0505 159.225 44.1753H186.596C186.283 42.988 185.877 41.8944 185.315 40.8321C184.065 38.4575 182.378 36.5203 180.222 35.083C178.066 33.6457 175.598 32.9271 172.786 32.9271C170.13 32.9271 167.693 33.6457 165.505 35.083C163.318 36.5515 161.631 38.4887 160.412 40.9571ZM138.228 61.8288C135.885 63.5785 133.604 64.4534 131.448 64.4534C129.167 64.4534 127.418 63.6723 126.105 62.11C124.824 60.5478 124.168 58.3918 124.168 55.6735V34.9268H140.603V22.6162H124.199V4.9002L110.701 9.96191V22.6162H100.89V34.9268H109.983V55.9235C109.983 62.6412 111.701 67.8904 115.138 71.7023C118.575 75.4829 123.418 77.3889 129.667 77.3889C132.573 77.3889 135.416 76.8577 138.291 75.7954C140.666 74.9205 142.79 73.6707 144.727 72.0772C145.102 71.7648 145.509 71.4211 145.852 71.0461L139.041 61.2039C138.791 61.4226 138.51 61.6413 138.228 61.8288Z" fill="#2F2F30" fill-rule="evenodd"></path>
</svg>
